<?xml version="1.0" encoding="UTF-8"?>
<svg version="1.1" xmlns="http://www.w3.org/2000/svg" width="672" height="406">
<path d="M0 0 C8.37100976 4.52444407 13.82079379 10.43585227 17.0625 19.4375 C17.96939649 23.90249654 18.18607667 28.13746073 18.18275452 32.68881226 C18.18403615 33.75005859 18.18403615 33.75005859 18.18534368 34.83274424 C18.18698397 37.19109396 18.181501 39.54937173 18.17602539 41.90771484 C18.17574318 43.60315957 18.17590192 45.29860442 18.1764679 46.99404907 C18.17675454 51.5885993 18.17087917 56.18312337 18.16389394 60.77766752 C18.1576384 65.58229661 18.15705486 70.38692631 18.15586853 75.19155884 C18.15276171 84.2861852 18.14455705 93.38079953 18.13451904 102.47542059 C18.12333777 112.83086288 18.11784237 123.18630575 18.11282361 133.54175258 C18.10237391 154.84034177 18.08478702 176.13892012 18.0625 197.4375 C21.54580122 195.42983917 25.02886054 193.42175934 28.51171875 191.41333008 C30.26290015 190.40359926 32.01425998 189.39417793 33.765625 188.38476562 C41.21088492 184.09105039 48.64264755 179.77496122 56.0625 175.4375 C65.7043298 169.80494515 75.35863633 164.19444919 85.04370117 158.63647461 C91.59708106 154.88077356 91.59708106 154.88077356 98.07421875 150.99609375 C130.43290951 131.42770206 170.31737044 126.82083489 206.76635742 135.7097168 C228.84472686 141.4363651 248.17976097 153.19779382 267.6796875 164.69140625 C274.50211507 168.70891622 281.37185915 172.64155401 288.25 176.5625 C289.31613525 177.17053467 290.38227051 177.77856934 291.48071289 178.4050293 C293.62521695 179.62767532 295.76987717 180.85004748 297.91470337 182.0721283 C302.95225323 184.94381048 307.98637405 187.82149242 313.02075195 190.69873047 C313.98927345 191.25221664 314.95779495 191.80570282 315.95566559 192.3759613 C318.32463024 193.7297728 320.69357457 195.08361986 323.0625 196.4375 C323.06608253 195.12166396 323.06608253 195.12166396 323.06973743 193.77924538 C323.12893223 172.41194401 323.20451104 151.04475501 323.29821491 129.67757607 C323.34313677 119.34446865 323.38255978 109.01139543 323.40893555 98.67822266 C323.43194484 89.66943464 323.46537564 80.66075514 323.51120156 71.65205324 C323.53509422 66.88418567 323.55384892 62.11642532 323.56011391 57.3484993 C323.56618267 52.85541594 323.58624703 48.36260675 323.61677551 43.86962509 C323.62552709 42.22581133 323.62928432 40.5819617 323.62750816 38.93812561 C323.6184217 26.64184965 324.14589048 15.77489334 333.0625 6.4375 C339.4025608 0.74283461 345.16651504 -1.83969474 353.8125 -1.9375 C354.94171875 -1.96585937 356.0709375 -1.99421875 357.234375 -2.0234375 C366.10095881 -0.95582843 373.56202309 3.66715133 381.0625 8.25 C383.00179586 9.41540861 384.94193608 10.57941306 386.8828125 11.7421875 C387.89118164 12.34772461 388.89955078 12.95326172 389.93847656 13.57714844 C395.23862397 16.73337876 400.58863653 19.80229964 405.9375 22.875 C417.34581443 29.43979627 428.72208793 36.05781326 440.0859375 42.69921875 C444.10969741 45.04905229 448.13667176 47.39335016 452.16357422 49.73779297 C455.15505716 51.48109378 458.14413841 53.22845153 461.1328125 54.9765625 C465.13985379 57.31985375 469.15660008 59.64531575 473.1796875 61.9609375 C475.14075242 63.09873874 477.10169472 64.23675137 479.0625 65.375 C479.95211426 65.88232666 480.84172852 66.38965332 481.75830078 66.91235352 C489.34494575 71.33801728 496.19421503 76.22757838 500.875 83.8125 C501.68904297 85.09253906 501.68904297 85.09253906 502.51953125 86.3984375 C507.49285729 96.19400118 507.49218823 105.17636165 507.45068359 115.8840332 C507.45475362 117.64912235 507.46009791 119.41420895 507.46661377 121.17929077 C507.4802449 125.95426867 507.47500531 130.72905124 507.46547651 135.50403237 C507.45785451 140.51524122 507.4649329 145.5264339 507.46963501 150.53764343 C507.47508669 158.9547321 507.46791796 167.37174171 507.45361328 175.78881836 C507.43730384 185.49715632 507.44256526 195.20530507 507.4590925 204.91363841 C507.47274316 213.26894405 507.47460909 221.624193 507.46677649 229.97950619 C507.46211756 234.96082384 507.46142553 239.94205282 507.47138596 244.92336464 C507.480105 249.61106129 507.47394422 254.29851621 507.45670319 258.98618698 C507.45276388 260.69852359 507.4538281 262.41088083 507.46049118 264.123209 C507.52870301 283.44685104 503.12924335 298.62902385 490.76171875 313.7421875 C483.899108 320.59486683 476.02230923 325.96592736 467.8125 331.0625 C465.86969109 332.28369417 463.92698568 333.50505301 461.984375 334.7265625 C461.00146484 335.34176758 460.01855469 335.95697266 459.00585938 336.59082031 C454.3431169 339.51625031 449.70361886 342.47793389 445.0625 345.4375 C443.22928743 346.60435642 441.39595384 347.77102272 439.5625 348.9375 C438.20125 349.80375 438.20125 349.80375 436.8125 350.6875 C426.72916667 357.10416667 416.64583333 363.52083333 406.5625 369.9375 C405.6542749 370.51564453 404.7460498 371.09378906 403.81030273 371.68945312 C401.98496395 372.85066376 400.15895903 374.01082797 398.33227539 375.16992188 C393.62049417 378.16163583 388.92322504 381.17310342 384.24609375 384.21875 C361.66344989 398.87983327 339.9397947 408.59094145 312.49658203 403.40673828 C294.82026175 399.49720001 281.12397975 389.36069603 267.0625 378.4375 C266.31210449 377.85661621 265.56170898 377.27573242 264.78857422 376.67724609 C261.82138901 374.37795368 258.857907 372.07411853 255.90283203 369.75927734 C249.51961134 364.76304865 243.04071251 359.90218708 236.54125977 355.05859375 C231.60133998 351.36842898 226.71334655 347.62211993 221.86669922 343.81030273 C218.2837014 340.99530709 214.67848974 338.2099406 211.0625 335.4375 C210.2286377 334.79312988 210.2286377 334.79312988 209.37792969 334.13574219 C195.43077787 323.50976142 178.65493604 319.87273558 161.3125 322.125 C144.56767635 325.21982053 132.61041691 334.35417563 119.48974609 344.55761719 C115.2018001 347.87859729 110.8800453 351.15515792 106.5625 354.4375 C100.1410641 359.32711038 93.7236944 364.22196988 87.3125 369.125 C86.63106934 369.64529785 85.94963867 370.1655957 85.24755859 370.70166016 C81.69365152 373.41676737 78.14933059 376.143344 74.6171875 378.88671875 C51.75005774 396.60736557 29.72662155 407.67418663 0.12890625 403.94140625 C-18.9196454 400.18266194 -34.6491906 389.39387171 -50.6015625 378.92578125 C-55.97497405 375.40250827 -61.38795393 371.94388092 -66.8125 368.5 C-67.72926514 367.91766602 -68.64603027 367.33533203 -69.59057617 366.73535156 C-71.44967925 365.55487564 -73.30897296 364.3746999 -75.16845703 363.19482422 C-83.43055727 357.95142821 -91.6848275 352.69571799 -99.9375 347.4375 C-100.97938477 346.77395508 -102.02126953 346.11041016 -103.09472656 345.42675781 C-109.46214085 341.36955981 -115.82266803 337.30194848 -122.171875 333.21630859 C-123.89172568 332.11012639 -125.61285038 331.00591921 -127.3359375 329.90478516 C-145.67574179 318.16515863 -159.11368378 305.02715013 -164.48256874 283.22396088 C-165.03992483 279.81014639 -165.08889334 276.46266939 -165.09140015 273.01428223 C-165.0957824 272.27597593 -165.10016465 271.53766963 -165.1046797 270.77699041 C-165.11801375 268.30770447 -165.12423444 265.83845418 -165.13037109 263.36914062 C-165.13827647 261.59641358 -165.14654569 259.82368813 -165.15515137 258.05096436 C-165.18132647 252.23190844 -165.19667699 246.4128455 -165.2109375 240.59375 C-165.2162995 238.58656307 -165.22167702 236.57937618 -165.22706985 234.57218933 C-165.24869416 226.21841301 -165.26742809 217.86463858 -165.27869225 209.51084137 C-165.29491358 197.56133263 -165.3280525 185.61214993 -165.38509309 173.66276407 C-165.42387893 165.24894162 -165.4433353 156.83520606 -165.44861281 148.4212966 C-165.45225512 143.4023234 -165.46415648 138.38369832 -165.49671555 133.36482239 C-165.52694767 128.63688689 -165.53305438 123.90950739 -165.52133179 119.18149567 C-165.5211123 117.45504425 -165.52931305 115.72856588 -165.54698563 114.0022049 C-165.6859048 99.63909295 -163.40706633 87.1492757 -152.9375 76.4375 C-146.5135231 70.77025067 -139.31389044 66.55741886 -131.875 62.375 C-130.13997223 61.38706634 -128.4049526 60.39911784 -126.67056274 59.4100647 C-125.49037191 58.73746531 -124.30968572 58.06573438 -123.12850952 57.39486694 C-117.36997204 54.12363941 -111.65196508 50.78491131 -105.9375 47.4375 C-97.68577615 42.61221272 -89.41173621 37.82737332 -81.125 33.0625 C-72.59934399 28.15947879 -64.11825348 23.1882806 -55.66860962 18.15597534 C-47.30935862 13.1775606 -38.93915521 8.23220227 -30.4375 3.5 C-29.70789063 3.09289795 -28.97828125 2.6857959 -28.2265625 2.26635742 C-19.81622257 -2.36730627 -9.14673575 -3.74839959 0 0 Z " fill="#51B43A" transform="translate(164.9375,1.5625)"/>
<path d="M0 0 C8.37100976 4.52444407 13.82079379 10.43585227 17.0625 19.4375 C17.9538278 23.87914215 18.21695099 28.14070914 18.28369141 32.66621399 C18.29512932 33.371445 18.30656723 34.07667602 18.31835175 34.80327767 C18.35497164 37.15437133 18.38467829 39.50549499 18.4140625 41.85668945 C18.43834993 43.54738648 18.4628404 45.2380806 18.48751831 46.92877197 C18.70352772 62.3294494 18.82520423 77.7313363 18.92181396 93.13317585 C18.9881772 103.48128519 19.082999 113.82752676 19.24902344 124.17456055 C19.39405162 133.21376413 19.48624771 142.25167246 19.51449776 151.29202431 C19.53116085 156.07300013 19.57358904 160.85051524 19.67901611 165.63042641 C19.77725695 170.1289462 19.80417541 174.62238266 19.7774086 179.12184143 C19.77992961 180.76796365 19.80797375 182.41428489 19.86404037 184.05945396 C20.03122101 189.22910457 19.9240875 193.56758729 18.0625 198.4375 C14.42130506 202.25910756 9.71302605 204.44980939 4.94978714 206.56870687 C2.09974938 207.8806923 -0.55762482 209.49356346 -3.24609375 211.10546875 C-5.28839814 212.27980199 -7.33138031 213.45295719 -9.375 214.625 C-17.95188756 219.55892217 -26.51786564 224.51041195 -35.0625 229.5 C-36.04549072 230.07395508 -37.02848145 230.64791016 -38.04125977 231.23925781 C-41.00696591 232.97150479 -43.9723052 234.70437789 -46.9375 236.4375 C-50.89535474 238.75082038 -54.85360663 241.06345749 -58.8125 243.375 C-59.79968018 243.95145264 -60.78686035 244.52790527 -61.80395508 245.12182617 C-69.10361357 249.3795166 -76.42451215 253.59944979 -83.75 257.8125 C-92.7917729 263.01411412 -101.78576589 268.29134601 -110.75 273.625 C-121.3489252 279.93062224 -132.01942639 286.09576149 -142.74316406 292.18603516 C-147.49732806 294.89741084 -152.21967579 297.66345844 -156.9375 300.4375 C-159.39984985 297.44750375 -160.7780175 294.64610977 -162.0625 291 C-162.39507812 290.07316406 -162.72765625 289.14632813 -163.0703125 288.19140625 C-164.67539669 283.09417942 -165.08753033 278.33764502 -165.09140015 273.01428223 C-165.0957824 272.27597593 -165.10016465 271.53766963 -165.1046797 270.77699041 C-165.11801375 268.30770447 -165.12423444 265.83845418 -165.13037109 263.36914062 C-165.13827647 261.59641358 -165.14654569 259.82368813 -165.15515137 258.05096436 C-165.18132647 252.23190844 -165.19667699 246.4128455 -165.2109375 240.59375 C-165.2162995 238.58656307 -165.22167702 236.57937618 -165.22706985 234.57218933 C-165.24869416 226.21841301 -165.26742809 217.86463858 -165.27869225 209.51084137 C-165.29491358 197.56133263 -165.3280525 185.61214993 -165.38509309 173.66276407 C-165.42387893 165.24894162 -165.4433353 156.83520606 -165.44861281 148.4212966 C-165.45225512 143.4023234 -165.46415648 138.38369832 -165.49671555 133.36482239 C-165.52694767 128.63688689 -165.53305438 123.90950739 -165.52133179 119.18149567 C-165.5211123 117.45504425 -165.52931305 115.72856588 -165.54698563 114.0022049 C-165.6859048 99.63909295 -163.40706633 87.1492757 -152.9375 76.4375 C-146.5135231 70.77025067 -139.31389044 66.55741886 -131.875 62.375 C-130.13997223 61.38706634 -128.4049526 60.39911784 -126.67056274 59.4100647 C-125.49037191 58.73746531 -124.30968572 58.06573438 -123.12850952 57.39486694 C-117.36997204 54.12363941 -111.65196508 50.78491131 -105.9375 47.4375 C-97.68577615 42.61221272 -89.41173621 37.82737332 -81.125 33.0625 C-72.59934399 28.15947879 -64.11825348 23.1882806 -55.66860962 18.15597534 C-47.30935862 13.1775606 -38.93915521 8.23220227 -30.4375 3.5 C-29.70789063 3.09289795 -28.97828125 2.6857959 -28.2265625 2.26635742 C-19.81622257 -2.36730627 -9.14673575 -3.74839959 0 0 Z " fill="#CCD027" transform="translate(164.9375,1.5625)"/>
<path d="M0 0 C1.12921875 -0.02835938 2.2584375 -0.05671875 3.421875 -0.0859375 C12.28845881 0.98167157 19.74952309 5.60465133 27.25 10.1875 C29.18929586 11.35290861 31.12943608 12.51691306 33.0703125 13.6796875 C34.07868164 14.28522461 35.08705078 14.89076172 36.12597656 15.51464844 C41.42612397 18.67087876 46.77613653 21.73979964 52.125 24.8125 C63.53331443 31.37729627 74.90958793 37.99531326 86.2734375 44.63671875 C90.29719741 46.98655229 94.32417176 49.33085016 98.35107422 51.67529297 C101.34255716 53.41859378 104.33163841 55.16595153 107.3203125 56.9140625 C111.32735379 59.25735375 115.34410008 61.58281575 119.3671875 63.8984375 C121.32825242 65.03623874 123.28919472 66.17425137 125.25 67.3125 C126.58442139 68.07348999 126.58442139 68.07348999 127.94580078 68.84985352 C135.53244575 73.27551728 142.38171503 78.16507838 147.0625 85.75 C147.60519531 86.60335937 148.14789062 87.45671875 148.70703125 88.3359375 C153.68035729 98.13150118 153.67968823 107.11386165 153.63818359 117.8215332 C153.64225362 119.58662235 153.64759791 121.35170895 153.65411377 123.11679077 C153.6677449 127.89176867 153.66250531 132.66655124 153.65297651 137.44153237 C153.64535451 142.45274122 153.6524329 147.4639339 153.65713501 152.47514343 C153.66258669 160.8922321 153.65541796 169.30924171 153.64111328 177.72631836 C153.62480384 187.43465632 153.63006526 197.14280507 153.6465925 206.85113841 C153.66024316 215.20644405 153.66210909 223.561693 153.65427649 231.91700619 C153.64961756 236.89832384 153.64892553 241.87955282 153.65888596 246.86086464 C153.667605 251.54856129 153.66144422 256.23601621 153.64420319 260.92368698 C153.64026388 262.63602359 153.6413281 264.34838083 153.64799118 266.060709 C153.69423692 279.1616068 152.15130266 290.51248299 146.25 302.375 C138.11000454 298.45026326 130.32859115 294.15590258 122.625 289.4375 C113.68572822 284.01545192 104.69356266 278.70298133 95.625 273.5 C88.04548492 269.15112539 80.50054248 264.76128438 73.02832031 260.23071289 C68.82047158 257.68933288 64.53620923 255.33012634 60.20703125 253.00390625 C55.12238419 250.20298442 50.1451835 247.21959796 45.1484375 244.265625 C39.67423285 241.0301518 34.18134701 237.82697345 28.6875 234.625 C27.67292725 234.03340088 26.65835449 233.44180176 25.61303711 232.83227539 C20.46036026 229.8280645 15.30667489 226.82559033 10.15234375 223.82421875 C8.6365271 222.9410498 8.6365271 222.9410498 7.09008789 222.04003906 C5.22633415 220.95416657 3.36228293 219.86880435 1.49780273 218.78417969 C-0.33605647 217.71555065 -2.1473416 216.60743755 -3.93667603 215.46582031 C-6.89722278 213.69984711 -9.86002179 212.62373461 -13.12336731 211.52667236 C-19.74375735 208.97727229 -25.38690338 206.11971823 -29.75 200.375 C-33.64398802 188.97070516 -32.44971265 176.1240553 -32.07946134 164.25053239 C-31.95221207 159.44047822 -31.94891824 154.63024945 -31.93113708 149.81877136 C-31.88436135 141.74456762 -31.75818432 133.6749877 -31.57446289 125.6027832 C-31.31597423 114.24112663 -31.19977069 102.88131548 -31.11279786 91.51722872 C-31.04041356 82.66355103 -30.93344688 73.81021943 -30.81640625 64.95703125 C-30.80395536 64.013053 -30.79150446 63.06907475 -30.77867627 62.0964911 C-30.70382689 56.6578379 -30.61058385 51.21998928 -30.49177742 45.78211403 C-30.4576434 44.1399747 -30.42811656 42.49773169 -30.40369797 40.85541916 C-30.21503908 28.61910097 -29.61591521 17.65930671 -20.75 8.375 C-14.4099392 2.68033461 -8.64598496 0.09780526 0 0 Z " fill="#CCD027" transform="translate(518.75,-0.375)"/>
<path d="M0 0 C4.1365834 2.65719806 8.29394197 5.28100202 12.45361328 7.90185547 C14.01225209 8.88485694 15.57084603 9.86792956 17.12939453 10.85107422 C17.89461426 11.33366699 18.65983398 11.81625977 19.44824219 12.31347656 C21.77835813 13.7845862 24.10648921 15.25878874 26.43408203 16.73388672 C33.86961354 21.44318543 41.31861334 26.12613729 48.81445312 30.73901367 C74.59737063 46.60811281 74.59737063 46.60811281 77.76611328 49.77685547 C77.88110148 51.68168954 77.92578258 53.59080052 77.94311523 55.49902344 C77.95595047 56.72475067 77.96878571 57.95047791 77.98200989 59.21334839 C77.99018365 60.56524246 77.99762615 61.91714113 78.00439453 63.26904297 C78.00847006 63.94944767 78.01254559 64.62985237 78.01674461 65.3308754 C78.03764604 68.94209746 78.05192193 72.55328123 78.0612793 76.16455078 C78.07226651 79.87087071 78.10656313 83.5765773 78.146451 87.28268242 C78.17280625 90.15002435 78.18098838 93.01722554 78.18456078 95.88467789 C78.19171859 97.90683852 78.21809229 99.92890227 78.24494934 101.95089722 C78.22181195 111.89408056 76.82220126 121.67710801 69.74267578 129.21044922 C61.73121826 135.55945014 52.84421783 138.5569931 42.76611328 137.77685547 C33.69875948 136.66063822 27.66846006 131.11354541 20.89892578 125.50878906 C16.82965096 122.20436649 12.63270806 119.06534225 8.45361328 115.90185547 C6.63436464 114.51935639 4.815353 113.1365454 2.99658203 111.75341797 C2.11147949 111.08084961 1.22637695 110.40828125 0.31445312 109.71533203 C-3.37384783 106.90970743 -7.05406503 104.09358529 -10.73388672 101.27685547 C-12.09716237 100.23518147 -13.46044372 99.19351494 -14.82373047 98.15185547 C-18.1126867 95.63761769 -21.3946481 93.11442664 -24.67529297 90.58935547 C-26.54893139 89.15177792 -28.42262856 87.71427694 -30.29638672 86.27685547 C-31.59962891 85.27041992 -31.59962891 85.27041992 -32.92919922 84.24365234 C-48.97543723 71.95476372 -65.38173273 65.78875105 -85.98388672 68.46435547 C-102.72871037 71.559176 -114.68596981 80.6935311 -127.80664062 90.89697266 C-132.09458593 94.21795223 -136.41629645 97.49457359 -140.73388672 100.77685547 C-146.47652843 105.14847796 -152.21540927 109.52483917 -157.94311523 113.91601562 C-160.01168895 115.50028137 -162.08341786 117.08033841 -164.15576172 118.65966797 C-166.97044299 120.80528566 -169.76933947 122.96987361 -172.56201172 125.14404297 C-173.97324557 126.23027218 -175.38469615 127.31621988 -176.79638672 128.40185547 C-177.42714111 128.89911133 -178.05789551 129.39636719 -178.70776367 129.90869141 C-186.74714031 136.04874268 -196.08451565 138.74346224 -206.23388672 137.77685547 C-213.81682261 136.42757862 -219.23407331 132.55183375 -224.23388672 126.77685547 C-231.59625215 114.92695302 -230.85829986 102.48548555 -231.09320068 89.01489162 C-231.16014822 85.24382121 -231.25557523 81.47837246 -231.42041016 77.71020508 C-232.45747816 53.40443263 -232.45747816 53.40443263 -228.81570435 47.46322632 C-225.44701123 44.01876928 -221.64950409 42.12201814 -217.15301514 40.51928711 C-214.05283033 39.31995346 -211.45130008 37.52800335 -208.67138672 35.71435547 C-207.08197266 34.74755859 -207.08197266 34.74755859 -205.46044922 33.76123047 C-202.12426466 31.70943658 -198.83168344 29.59605441 -195.54638672 27.46435547 C-190.22623572 24.01702323 -184.84150039 20.68951291 -179.42138672 17.40185547 C-173.55337179 13.83804786 -167.73882777 10.20808021 -161.98388672 6.46435547 C-161.30036133 6.02067627 -160.61683594 5.57699707 -159.91259766 5.11987305 C-156.80801566 3.103462 -153.70494772 1.08482659 -150.60644531 -0.94091797 C-97.37730297 -35.67558682 -53.39468658 -34.39736163 0 0 Z " fill="#2C6E5D" transform="translate(412.23388671875,255.22314453125)"/>
<path d="M0 0 C4.21590776 1.35480128 7.78297434 2.87536524 11.578125 5.16796875 C12.64297119 5.80613525 13.70781738 6.44430176 14.80493164 7.10180664 C15.36536163 7.44116241 15.92579163 7.78051819 16.50320435 8.13015747 C19.51946202 9.95591054 22.54771798 11.76160908 25.57421875 13.5703125 C26.19465561 13.94178909 26.81509247 14.31326569 27.45433044 14.69599915 C33.61980986 18.3828853 39.83475461 21.98189152 46.0625 25.5625 C47.11719482 26.16980957 48.17188965 26.77711914 49.25854492 27.40283203 C54.27098591 30.2870155 59.28698463 33.16494049 64.30567932 36.03822327 C66.08060112 37.05496781 67.85475882 38.0730324 69.62866211 39.09155273 C71.84665794 40.36463345 74.06612141 41.63516217 76.28735352 42.90258789 C80.80647981 45.49797602 85.25356614 48.11957534 89.55859375 51.05859375 C93.58201603 53.79257321 97.75359684 56.11219803 102.04052734 58.40576172 C107.5205552 61.35779784 112.91024893 64.47113187 118.3125 67.5625 C118.9188327 67.90904633 119.52516541 68.25559265 120.14987183 68.61264038 C129.21605866 73.79651454 138.23525995 79.0544817 147.21459961 84.38769531 C156.10084356 89.66507174 165.0451575 94.84010807 174 100 C173.17942564 103.74015414 171.75067636 106.12406062 169.5 109.25 C168.55640625 110.58804688 168.55640625 110.58804688 167.59375 111.953125 C161.23827329 119.87645498 152.84183285 125.3188957 144.3125 130.625 C143.2196167 131.3144873 142.1267334 132.00397461 141.00073242 132.71435547 C138.75377172 134.13172665 136.50483146 135.54596458 134.25390625 136.95703125 C129.4247636 139.98901397 124.61962663 143.05828724 119.8125 146.125 C118.00673167 147.27378536 116.20074251 148.42222368 114.39453125 149.5703125 C108.928578 153.04513246 103.46418278 156.52239682 98 160 C96.16667337 161.1666772 94.33334004 162.33334387 92.5 163.5 C91.5925 164.0775 90.685 164.655 89.75 165.25 C87 167 84.25 168.75 81.5 170.5 C80.5917749 171.07814453 79.6835498 171.65628906 78.74780273 172.25195312 C76.92246395 173.41316376 75.09645903 174.57332797 73.26977539 175.73242188 C68.55799417 178.72413583 63.86072504 181.73560342 59.18359375 184.78125 C36.61116775 199.43569964 14.86497551 209.17167341 -12.56958008 203.96679688 C-23.15995306 201.63264205 -35.66412112 197.27827138 -43 189 C-40.23723823 189.52268466 -37.6739124 190.10869587 -35 191 C-26.15236467 192.12438699 -17.96700653 189.24201751 -10.625 184.375 C-5.32135082 180.10594357 -2.31376729 173.60753239 -1 167 C-0.89838134 164.72799851 -0.85373334 162.45325759 -0.84178162 160.17901611 C-0.83684364 159.49364517 -0.83190566 158.80827423 -0.82681805 158.10213447 C-0.81146588 155.80669882 -0.80308863 153.5112911 -0.79467773 151.21582031 C-0.78509742 149.56992854 -0.77508724 147.92403921 -0.76467896 146.27815247 C-0.7376405 141.80953927 -0.71662518 137.34091553 -0.69667697 132.87226582 C-0.67481091 128.20240163 -0.64742524 123.53256992 -0.62062073 118.86273193 C-0.57070225 110.01951588 -0.52576027 101.17628179 -0.48259836 92.33303046 C-0.43321878 82.26539318 -0.37830332 72.1977885 -0.32291877 62.13018274 C-0.20911169 41.42015219 -0.10226985 20.71009053 0 0 Z " fill="#92BF36" transform="translate(490,201)"/>
<path d="M0 0 C0.00146656 0.8566091 0.00293312 1.71321819 0.00444412 2.59578514 C0.04153502 23.46239403 0.10058009 44.32884079 0.18390274 65.19531822 C0.22367088 75.28630201 0.25607469 85.37720807 0.27099609 95.46826172 C0.28402413 104.26612322 0.31101824 113.06381351 0.35461307 121.86157858 C0.37720193 126.51769762 0.39291222 131.1736057 0.39188385 135.82978439 C0.39113572 140.21787865 0.40914782 144.60550703 0.44116783 148.99348068 C0.44964344 150.59859083 0.45143273 152.20375338 0.44580269 153.80887604 C0.4093116 165.81776007 1.65525072 175.31860087 10.13671875 184.30859375 C16.0110111 189.64102265 21.96565689 191.25323117 29.8125 191.1640625 C33.63731387 190.87720146 37.29457025 189.95421781 41 189 C42.33333333 188.66666667 43.66666667 188.33333333 45 188 C41.82502567 191.53827985 38.28612632 193.79673627 34.125 196 C33.47023682 196.34812744 32.81547363 196.69625488 32.14086914 197.05493164 C14.13179169 206.2808846 -7.68685257 207.86249763 -27 202 C-41.78230991 196.9774391 -54.71091212 187.98825547 -67.6640625 179.48828125 C-73.03747405 175.96500827 -78.45045393 172.50638092 -83.875 169.0625 C-84.79176514 168.48016602 -85.70853027 167.89783203 -86.65307617 167.29785156 C-88.51217925 166.11737564 -90.37147296 164.9371999 -92.23095703 163.75732422 C-100.49305727 158.51392821 -108.7473275 153.25821799 -117 148 C-118.56282715 147.00468262 -118.56282715 147.00468262 -120.15722656 145.98925781 C-126.52464085 141.93205981 -132.88516803 137.86444848 -139.234375 133.77880859 C-140.95422568 132.67262639 -142.67535038 131.56841921 -144.3984375 130.46728516 C-155.96285411 123.06470169 -167.25886082 115.36619571 -174 103 C-174 102.01 -174 101.02 -174 100 C-173.48953125 99.7097998 -172.9790625 99.41959961 -172.453125 99.12060547 C-157.90998471 90.84661586 -143.44283051 82.44760576 -129 74 C-115.59449354 66.16310359 -102.17078446 58.35961787 -88.71582031 50.60791016 C-77.4520275 44.11500122 -66.22447236 37.56057444 -55 31 C-51.04214526 28.68667962 -47.0838915 26.37404572 -43.125 24.0625 C-42.15522217 23.49619873 -41.18544434 22.92989746 -40.1862793 22.34643555 C-34.73782631 19.16850705 -29.2816638 16.00438041 -23.81640625 12.85546875 C-23.21918762 12.51133438 -22.62196899 12.16720001 -22.00665283 11.81263733 C-19.10132207 10.13901086 -16.19501527 8.46712011 -13.28759766 6.79711914 C-12.24780762 6.19891357 -11.20801758 5.60070801 -10.13671875 4.984375 C-9.21592529 4.45553711 -8.29513184 3.92669922 -7.34643555 3.38183594 C-1.60388693 0 -1.60388693 0 0 0 Z " fill="#8DBF34" transform="translate(182,201)"/>
<path d="M0 0 C3.510639 0.79241403 5.98542422 2.06214238 9.04296875 3.9921875 C10.02539551 4.60908447 11.00782227 5.22598145 12.02001953 5.86157227 C13.06528809 6.52600342 14.11055664 7.19043457 15.1875 7.875 C16.2688623 8.5568335 17.35022461 9.23866699 18.46435547 9.94116211 C25.90518203 14.64234636 33.30627071 19.40311341 40.68359375 24.203125 C45.66412213 27.43889712 50.67530815 30.62607461 55.6875 33.8125 C57.05733032 34.68430908 57.05733032 34.68430908 58.45483398 35.57373047 C63.3588944 38.69289965 68.26939708 41.80145372 73.1875 44.8984375 C74.19208252 45.53289795 75.19666504 46.1673584 76.23168945 46.82104492 C78.16306371 48.04061676 80.09641543 49.25706412 82.03198242 50.4699707 C82.90185791 51.01999756 83.7717334 51.57002441 84.66796875 52.13671875 C85.43391357 52.61842529 86.1998584 53.10013184 86.98901367 53.59643555 C88.8884537 54.92214645 90.42560427 56.30803271 92 58 C91.04299194 58.59518433 91.04299194 58.59518433 90.06665039 59.20239258 C74.39473562 68.95034413 74.39473562 68.95034413 58.875 78.9375 C36.65655589 93.41234992 14.47549597 103.1350258 -12.57617188 97.96899414 C-23.16695873 95.61643846 -35.6589884 91.28406347 -43 83 C-40.23723823 83.52268466 -37.6739124 84.10869587 -35 85 C-26.15236467 86.12438699 -17.96700653 83.24201751 -10.625 78.375 C-5.30264201 74.09088433 -2.35225263 67.61495505 -1 61 C-0.88596199 58.98415909 -0.82387602 56.96514189 -0.79467773 54.94628906 C-0.77473251 53.72532532 -0.75478729 52.50436157 -0.73423767 51.24639893 C-0.71752518 49.93274353 -0.70081268 48.61908813 -0.68359375 47.265625 C-0.66301081 45.90370064 -0.64201399 44.54178248 -0.62062073 43.17987061 C-0.56553835 39.60265128 -0.51606836 36.02537562 -0.46777344 32.44805908 C-0.41745711 28.79474906 -0.36182403 25.14152042 -0.30664062 21.48828125 C-0.19922838 14.32558983 -0.09774615 7.16283054 0 0 Z " fill="#79AF0C" transform="translate(490,307)"/>
<path d="M0 0 C0.00546844 1.15059402 0.00546844 1.15059402 0.01104736 2.32443237 C0.04908325 9.59137081 0.10611038 16.85780538 0.18390274 24.12441826 C0.22323207 27.85932926 0.25549097 31.59400965 0.27099609 35.32910156 C0.28625975 38.94096111 0.32087336 42.55218599 0.36830902 46.16376114 C0.38302376 47.53423639 0.39103526 48.90480231 0.39188385 50.27535629 C0.40617719 61.79643322 2.07550097 70.76404813 10.13671875 79.30859375 C16.0110111 84.64102265 21.96565689 86.25323117 29.8125 86.1640625 C33.63731387 85.87720146 37.29457025 84.95421781 41 84 C42.33333333 83.66666667 43.66666667 83.33333333 45 83 C41.82502567 86.53827985 38.28612632 88.79673627 34.125 91 C33.47023682 91.34812744 32.81547363 91.69625488 32.14086914 92.05493164 C14.13179169 101.2808846 -7.68685257 102.86249763 -27 97 C-41.82597938 91.9626016 -54.78790412 82.93711085 -67.77734375 74.41015625 C-73.0649166 70.94402493 -78.40016994 67.55653054 -83.75 64.1875 C-84.57846436 63.66575195 -85.40692871 63.14400391 -86.26049805 62.60644531 C-88.17298222 61.4032038 -90.08607681 60.20095077 -92 59 C-89.76414684 56.59717946 -87.44282349 54.88183882 -84.66796875 53.13671875 C-83.79825439 52.58677246 -82.92854004 52.03682617 -82.0324707 51.47021484 C-81.09363037 50.88191895 -80.15479004 50.29362305 -79.1875 49.6875 C-77.184822 48.42329403 -75.18221995 47.15896775 -73.1796875 45.89453125 C-72.15327148 45.24822754 -71.12685547 44.60192383 -70.06933594 43.93603516 C-65.30670402 40.93192514 -60.56035274 37.90238973 -55.8125 34.875 C-48.36492114 30.13247507 -40.90482621 25.41033896 -33.43334961 20.70556641 C-28.70591984 17.72374866 -23.99469048 14.71748138 -19.29296875 11.6953125 C-18.71941147 11.32693268 -18.14585419 10.95855286 -17.55491638 10.57901001 C-14.70493177 8.74838601 -11.85648838 6.91544094 -9.01049805 5.07861328 C-7.47002808 4.08837158 -7.47002808 4.08837158 -5.8984375 3.078125 C-4.97724121 2.48418945 -4.05604492 1.89025391 -3.10693359 1.27832031 C-1 0 -1 0 0 0 Z " fill="#79AF0C" transform="translate(182,306)"/>
</svg>
